<?xml version="1.0" encoding="utf-8"?>
<!-- Generator: Adobe Illustrator 23.0.6, SVG Export Plug-In . SVG Version: 6.00 Build 0)  -->
<svg version="1.1" id="Layer_1" xmlns="http://www.w3.org/2000/svg" xmlns:xlink="http://www.w3.org/1999/xlink" x="0px" y="0px"
	 viewBox="0 0 1480 1480" style="enable-background:new 0 0 1480 1480;" xml:space="preserve">
<style type="text/css">
	.st0{stroke:#FFFFFF;stroke-miterlimit:10;}
	.st1{fill:#FFFFFF;}
	.st2{fill:#ED1E79;}
	.st3{fill:#FFFFFF;stroke:#000000;stroke-miterlimit:10;}
	.st4{fill:none;stroke:#000000;stroke-width:2;}
	.st5{fill:#BB0087;}
	.st6{fill:none;}
</style>
<rect id="_x3C_maRechthoek_x3E_" x="800.5" y="1133.5" class="st0" width="308" height="308"/>
<g id="_x3C_buiten_x3E_">
	<rect x="314" y="379" class="st1" width="794" height="749"/>
	<path d="M1106,381v745H316V381H1106 M1110,377H312v753h798V377L1110,377z"/>
</g>
<path id="_x3C_m" class="st2" d="M874.2,1420v-123.1h37.2l22.3,84l22.1-84h37.3V1420H970v-96.9l-24.4,96.9h-23.9l-24.4-96.9v96.9
	H874.2z"/>
<path id="_x3C_a_x5F_Ma_x3E_" class="st3" d="M1036.3,1358l-21.4-3.9c2.4-8.6,6.6-15,12.4-19.1c5.9-4.1,14.6-6.2,26.2-6.2
	c10.5,0,18.4,1.2,23.5,3.7c5.2,2.5,8.8,5.7,10.9,9.5c2.1,3.8,3.1,10.9,3.1,21.1l-0.3,27.5c0,7.8,0.4,13.6,1.1,17.3
	c0.8,3.7,2.2,7.7,4.2,12h-23.3c-0.6-1.6-1.4-3.9-2.3-7c-0.4-1.4-0.7-2.3-0.8-2.8c-4,3.9-8.3,6.9-12.9,8.8c-4.6,2-9.5,2.9-14.7,2.9
	c-9.2,0-16.4-2.5-21.7-7.5c-5.3-5-7.9-11.3-7.9-18.9c0-5,1.2-9.5,3.6-13.5c2.4-3.9,5.8-7,10.1-9.1c4.3-2.1,10.6-3.9,18.8-5.5
	c11-2.1,18.7-4,22.9-5.8v-2.4c0-4.5-1.1-7.8-3.4-9.7c-2.2-1.9-6.5-2.9-12.7-2.9c-4.2,0-7.5,0.8-9.8,2.5
	C1039.6,1351,1037.7,1353.9,1036.3,1358z M1067.8,1377.2c-3,1-7.8,2.2-14.4,3.6c-6.6,1.4-10.8,2.8-12.8,4.1c-3.1,2.2-4.6,5-4.6,8.3
	c0,3.3,1.2,6.2,3.7,8.6c2.5,2.4,5.6,3.6,9.4,3.6c4.3,0,8.3-1.4,12.2-4.2c2.9-2.1,4.7-4.7,5.6-7.8c0.6-2,0.9-5.8,0.9-11.5V1377.2z"/>
<path id="_x3C_g_x3E_" d="M1124.1,1425.9l27,3.3c0.4,3.1,1.5,5.3,3.1,6.5c2.2,1.7,5.8,2.5,10.6,2.5c6.2,0,10.8-0.9,13.9-2.8
	c2.1-1.2,3.6-3.2,4.7-6c0.7-2,1.1-5.6,1.1-10.8v-13c-7.1,9.6-16,14.4-26.7,14.4c-12,0-21.5-5.1-28.5-15.2c-5.5-8-8.2-18-8.2-29.9
	c0-14.9,3.6-26.4,10.8-34.3c7.2-7.9,16.1-11.8,26.8-11.8c11,0,20.1,4.8,27.3,14.5v-12.5h22.1v80c0,10.5-0.9,18.4-2.6,23.6
	c-1.7,5.2-4.2,9.3-7.3,12.3c-3.1,3-7.3,5.3-12.6,7c-5.2,1.7-11.9,2.5-19.9,2.5c-15.1,0-25.8-2.6-32.2-7.8
	c-6.3-5.2-9.5-11.7-9.5-19.7C1124,1427.9,1124,1427,1124.1,1425.9z M1145.2,1373.5c0,9.5,1.8,16.4,5.5,20.8
	c3.7,4.4,8.2,6.6,13.6,6.6c5.8,0,10.6-2.3,14.6-6.8c4-4.5,6-11.2,6-20c0-9.2-1.9-16.1-5.7-20.6c-3.8-4.5-8.6-6.7-14.4-6.7
	c-5.7,0-10.3,2.2-14,6.6C1147,1357.8,1145.2,1364.5,1145.2,1373.5z"/>
<path id="_x3C_a_x5F_anders_x3E_" class="st4" d="M607.9,1044.1l-21.4-3.8c2.4-8.6,6.5-15,12.3-19.2c5.9-4.2,14.6-6.3,26.2-6.3
	c10.5-0.1,18.4,1.2,23.5,3.6c5.2,2.5,8.8,5.6,10.9,9.4c2.1,3.8,3.2,10.9,3.3,21.1l-0.1,27.5c0,7.8,0.4,13.6,1.2,17.3
	c0.8,3.7,2.2,7.7,4.3,11.9l-23.3,0.1c-0.6-1.6-1.4-3.9-2.3-7c-0.4-1.4-0.7-2.3-0.9-2.8c-4,3.9-8.3,6.9-12.9,8.9c-4.6,2-9.5,3-14.7,3
	c-9.2,0-16.4-2.4-21.7-7.4c-5.3-5-8-11.2-8-18.9c0-5,1.2-9.5,3.5-13.5c2.4-4,5.7-7,10.1-9.1c4.3-2.1,10.6-4,18.7-5.6
	c11-2.1,18.7-4.1,22.9-5.9l0-2.4c0-4.5-1.2-7.8-3.4-9.7c-2.2-1.9-6.5-2.9-12.7-2.8c-4.2,0-7.5,0.9-9.8,2.5
	C611.2,1037,609.3,1040,607.9,1044.1z M639.5,1063.1c-3,1-7.8,2.3-14.3,3.7c-6.5,1.4-10.8,2.8-12.8,4.2c-3.1,2.2-4.6,5-4.6,8.3
	c0,3.3,1.3,6.2,3.7,8.5c2.5,2.4,5.6,3.6,9.4,3.6c4.3,0,8.3-1.4,12.2-4.3c2.8-2.1,4.7-4.8,5.6-7.8c0.6-2,0.9-5.9,0.9-11.5
	L639.5,1063.1z"/>
<path id="_x3C_n_x3E_" class="st4" d="M756.1,1106h-23.6v-45.5c0-9.6-0.5-15.9-1.5-18.7c-1-2.8-2.6-5-4.9-6.6
	c-2.3-1.6-5-2.4-8.2-2.4c-4.1,0-7.8,1.1-11,3.4c-3.2,2.2-5.5,5.2-6.7,8.9c-1.2,3.7-1.8,10.5-1.8,20.5v40.4h-23.6v-89.2h21.9v13.1
	c7.8-10.1,17.6-15.1,29.4-15.1c5.2,0,10,0.9,14.3,2.8c4.3,1.9,7.6,4.3,9.8,7.2c2.2,2.9,3.8,6.2,4.6,9.9c0.9,3.7,1.3,9,1.3,15.9V1106
	z"/>
<path id="_x3C_d_x3E_" class="st4" d="M850.8,1106h-21.9v-13.1c-3.6,5.1-7.9,8.9-12.9,11.4s-10,3.7-15,3.7c-10.2,0-19-4.1-26.3-12.4
	c-7.3-8.3-11-19.8-11-34.6c0-15.1,3.6-26.6,10.7-34.5c7.1-7.9,16.1-11.8,27-11.8c10,0,18.6,4.1,25.9,12.4v-44.3h23.6V1106z
	 M787.8,1059.5c0,9.5,1.3,16.4,3.9,20.7c3.8,6.2,9.1,9.2,16,9.2c5.4,0,10-2.3,13.9-6.9c3.8-4.6,5.7-11.5,5.7-20.7
	c0-10.2-1.8-17.6-5.5-22.1c-3.7-4.5-8.4-6.8-14.2-6.8c-5.6,0-10.3,2.2-14.1,6.7S787.8,1050.6,787.8,1059.5z"/>
<path id="_x3C_e_x3E_" class="st4" d="M916.7,1076.6l23.5,3.9c-3,8.6-7.8,15.2-14.3,19.7c-6.5,4.5-14.7,6.8-24.5,6.8
	c-15.5,0-27-5.1-34.4-15.2c-5.9-8.1-8.8-18.4-8.8-30.7c0-14.8,3.9-26.4,11.6-34.7c7.7-8.4,17.5-12.6,29.3-12.6
	c13.3,0,23.7,4.4,31.4,13.1c7.7,8.8,11.3,22.2,11,40.3h-59.1c0.2,7,2.1,12.4,5.7,16.3c3.6,3.9,8.2,5.8,13.6,5.8c3.7,0,6.8-1,9.3-3
	S915.5,1081.1,916.7,1076.6z M918.1,1052.8c-0.2-6.8-1.9-12-5.3-15.6c-3.4-3.6-7.4-5.3-12.3-5.3c-5.2,0-9.4,1.9-12.8,5.6
	c-3.4,3.8-5,8.8-5,15.3H918.1z"/>
<path id="_x3C_r_x3E_" class="st4" d="M976.3,1107h-23.6v-89.2h21.9v12.7c3.8-6,7.1-9.9,10.1-11.8c3-1.9,6.4-2.9,10.2-2.9
	c5.4,0,10.6,1.5,15.5,4.5l-7.3,20.6c-4-2.6-7.7-3.9-11.1-3.9c-3.3,0-6.1,0.9-8.4,2.7c-2.3,1.8-4.1,5.1-5.4,9.9
	c-1.3,4.8-2,14.7-2,29.9V1107z"/>
<path id="_x3C_s_x3E_" class="st4" d="M1010.4,1079.5l23.7-3.6c1,4.6,3.1,8.1,6.1,10.5c3.1,2.4,7.4,3.6,12.9,3.6
	c6.1,0,10.7-1.1,13.8-3.4c2.1-1.6,3.1-3.7,3.1-6.3c0-1.8-0.6-3.3-1.7-4.5c-1.2-1.1-3.8-2.2-7.9-3.1c-19-4.2-31.1-8-36.2-11.5
	c-7.1-4.8-10.6-11.5-10.6-20.1c0-7.7,3.1-14.2,9.2-19.5c6.1-5.3,15.6-7.9,28.4-7.9c12.2,0,21.3,2,27.2,6c5.9,4,10,9.9,12.3,17.6
	l-22.3,4.1c-1-3.5-2.8-6.1-5.4-8c-2.7-1.8-6.5-2.8-11.4-2.8c-6.2,0-10.7,0.9-13.4,2.6c-1.8,1.2-2.7,2.8-2.7,4.8
	c0,1.7,0.8,3.1,2.4,4.3c2.1,1.6,9.5,3.8,22,6.6c12.6,2.9,21.3,6.4,26.3,10.5c4.9,4.2,7.4,10.1,7.4,17.6c0,8.2-3.4,15.2-10.2,21.1
	c-6.8,5.9-16.9,8.8-30.3,8.8c-12.2,0-21.8-2.5-28.8-7.4C1017.2,1094.7,1012.6,1088,1010.4,1079.5z"/>
<path class="st5" d="M710.6,607.1c0-57,47.6-103.1,106.5-103.1c57.4,0,103.9,46.4,103.9,103.7c0,151-176.4,167.6-210.4,273.3"/>
<path class="st5" d="M710.6,881c-34-105.7-210.4-122.2-210.4-273.3c0-57.3,46.5-103.7,103.9-103.7c58.9,0,106.5,46.1,106.5,103.1"/>
<line class="st6" x1="689" y1="1017.5" x2="770" y2="1017.5"/>
<g id="_x3C_i_x3E_">
	<rect x="1071.7" y="1448" class="st4" width="3.5" height="20.1"/>
	<ellipse class="st4" cx="1073.5" cy="1444.9" rx="2.2" ry="1.9"/>
</g>
<path id="_x3C_e_x3E__1_" class="st4" d="M1090.4,1462.1l5.4,0.8c-0.7,1.8-1.8,3.1-3.3,4.1c-1.5,0.9-3.4,1.4-5.7,1.4
	c-3.6,0-6.2-1-8-3.1c-1.4-1.7-2-3.8-2-6.4c0-3.1,0.9-5.5,2.7-7.2c1.8-1.7,4-2.6,6.8-2.6c3.1,0,5.5,0.9,7.3,2.7
	c1.8,1.8,2.6,4.6,2.5,8.3h-13.7c0,1.4,0.5,2.6,1.3,3.4c0.8,0.8,1.9,1.2,3.1,1.2c0.9,0,1.6-0.2,2.2-0.6
	C1089.6,1463.7,1090.1,1463,1090.4,1462.1z M1090.7,1457.2c0-1.4-0.4-2.5-1.2-3.2c-0.8-0.7-1.7-1.1-2.8-1.1c-1.2,0-2.2,0.4-2.9,1.2
	c-0.8,0.8-1.2,1.8-1.1,3.2H1090.7z"/>
<path class="st4" d="M1100.8,1448.4v3.4h-4.3v2.3h4.3c0,4.2,0,12.7,0,12.7s0,0.9,0,1.4c0.4,0,1.1,0,1.3,0s4,0,5.9,0
	c0-0.9,0-1.9,0-2.8c0,0-3.6,0.6-3.6,0s0-11.3,0-11.3h3.6v-2.3h-3.6v-3.4H1100.8z"/>
<path class="st4" d="M1069.3,1468h-5.4v-9.4c0-2-0.1-3.3-0.3-3.9c-0.2-0.6-0.6-1-1.1-1.4c-0.5-0.3-1.2-0.5-1.9-0.5
	c-0.9,0-1.8,0.2-2.5,0.7c-0.8,0.5-1.3,1.1-1.5,1.8c-0.3,0.8-0.4,4.2-0.4,4.2v8.4h-5.4v-18.5h5.1v2.7c1.8-2.1,4.1-3.1,6.8-3.1
	c1.2,0,2.3,0.2,3.3,0.6c1,0.4,1.7,0.9,2.3,1.5c0.5,0.6,0.9,1.3,1.1,2.1c0.2,0.8,0.3,1.9,0.3,3.3V1468z"/>
</svg>
